<svg id="Layer_1" data-name="Layer 1" xmlns="http://www.w3.org/2000/svg" viewBox="0 0 32 32"><defs><style>.cls-1{stroke:#000;stroke-miterlimit:10;stroke-width:0.7px;}</style></defs><title>Add icon0</title><path class="cls-1" d="M15.06.94h1.88c.51.07,1,.12,1.54.2A14.78,14.78,0,0,1,26,4.72a14.79,14.79,0,0,1,4.88,8.69c.1.56.15,1.14.23,1.71v1.76c0,.38-.08.76-.13,1.13a14.58,14.58,0,0,1-4.14,8.46,14.62,14.62,0,0,1-13.87,4.26,14.39,14.39,0,0,1-8.87-5.59A14.67,14.67,0,0,1,1.08,14a14.61,14.61,0,0,1,4.2-8.52,14.73,14.73,0,0,1,8.13-4.28C14,1.08,14.51,1,15.06.94ZM2.66,16A13.34,13.34,0,1,0,16,2.66,13.37,13.37,0,0,0,2.66,16Z"/><path class="cls-1" d="M15.14,16.86H11.65c-.49,0-1,0-1.47,0a.87.87,0,1,1,0-1.72h5v-.36c0-1.49,0-3,0-4.47a1.57,1.57,0,0,1,0-.43.82.82,0,0,1,.8-.65.84.84,0,0,1,.84.61,1.83,1.83,0,0,1,0,.47c0,1.49,0,3,0,4.47v.37H21.8a.9.9,0,0,1,1,.88.88.88,0,0,1-1,.85c-1.52,0-3,0-4.55,0h-.39v.38c0,1.53,0,3.06,0,4.59a.87.87,0,0,1-.75,1,.84.84,0,0,1-.93-.64,1.57,1.57,0,0,1,0-.43c0-1.49,0-3,0-4.47Z"/></svg>