<svg id="Layer_1" data-name="Layer 1" xmlns="http://www.w3.org/2000/svg" viewBox="0 0 32 32"><title>Add icon0</title><path d="M15,1.08H17l.66.1a14.88,14.88,0,0,1,9.21,4.6,14.71,14.71,0,0,1,4,8.68c0,.21.06.41.09.62v1.84a.19.19,0,0,0,0,.08c-.11.69-.18,1.39-.32,2.08a14.13,14.13,0,0,1-1.93,4.84,15.4,15.4,0,0,1-3.55,3.87,13.94,13.94,0,0,1-7.77,3.08l-.43.05H15.51l-.07,0a17.42,17.42,0,0,1-2.37-.29,14,14,0,0,1-7.34-3.79,15.61,15.61,0,0,1-3.3-4.62,14,14,0,0,1-1.34-5.54,15.87,15.87,0,0,1,.16-2.84A14.6,14.6,0,0,1,2.61,9.39,14.94,14.94,0,0,1,5.85,5.1a14.65,14.65,0,0,1,8.56-3.92Zm1,2.36A12.57,12.57,0,1,0,28.57,16.06,12.57,12.57,0,0,0,16,3.44Z"/><path d="M14.82,17.18h-4.5a1.2,1.2,0,0,1-1.19-.83,1.15,1.15,0,0,1,1-1.5,7.31,7.31,0,0,1,.81,0h3.89V10.49A1.54,1.54,0,0,1,15,9.65a1.15,1.15,0,0,1,1.26-.53,1.14,1.14,0,0,1,.89,1c0,.35,0,.7,0,1,0,.87,0,1.74,0,2.61v1h4.36a1.4,1.4,0,0,1,1,.34,1.13,1.13,0,0,1,.33,1.15,1.11,1.11,0,0,1-.85.82,1.58,1.58,0,0,1-.38.05H17.18v4.43a1.28,1.28,0,0,1-.37,1,1.15,1.15,0,0,1-1.18.26,1.1,1.1,0,0,1-.78-.92,3.55,3.55,0,0,1,0-.46v-4.3Z"/></svg>