<svg xmlns="http://www.w3.org/2000/svg" viewBox="0 0 15.54 29.86"><title>Attachment </title><g id="Layer_2" data-name="Layer 2"><g id="Layer_1-2" data-name="Layer 1"><path d="M12.47,1.69c-.35-.21-.69-.43-1.05-.63A7.59,7.59,0,0,0,.14,7.55c-.07,5.64,0,11.29,0,16.94a5.32,5.32,0,0,0,5.35,5.27,5.31,5.31,0,0,0,5.34-5.28c0-5.58,0-11.15,0-16.73a3.09,3.09,0,1,0-6.17,0q0,8.16,0,16.32a2.28,2.28,0,0,0,0,.26l1.76-.06a1.82,1.82,0,0,1-.12-.51q0-7.87,0-15.75a2.31,2.31,0,0,1,.24-1.08,1.36,1.36,0,0,1,1.56-.61A1.41,1.41,0,0,1,9.17,7.58c0,.12,0,.24,0,.36,0,5.46,0,10.91,0,16.37a3.7,3.7,0,0,1-7.39.42,4.61,4.61,0,0,1,0-.52c0-5.46,0-10.91,0-16.37a6,6,0,0,1,11.91-.68c0,.33,0,.66,0,1q0,7.91,0,15.81a3.31,3.31,0,0,1-.11.64l1.83-.06a4.23,4.23,0,0,1-.07-.57c0-5.25,0-10.5,0-15.75a8,8,0,0,0-1.54-5.06A.66.66,0,0,1,13.78,3Z"/><path d="M5.47,29.86A5.44,5.44,0,0,1,0,24.49v-.17C0,18.82,0,13.14,0,7.55a7.55,7.55,0,0,1,3.8-6.49A7.67,7.67,0,0,1,11.47,1c.25.14.49.29.73.44l.33.2h0L13.88,3a.13.13,0,0,1,0,.06s0,.05,0,.06a8.12,8.12,0,0,1,1.56,5.12c0,4.08,0,8.22,0,12.22V24a2.7,2.7,0,0,0,0,.41.59.59,0,0,0,0,.14v.11h-.11l-1.82.07h-.12l0-.12c0-.08,0-.16,0-.23a2,2,0,0,0,.06-.39q0-7.9,0-15.81c0-.31,0-.64,0-1a5.87,5.87,0,0,0-11.71.67c0,4,0,8.08,0,12.13v4.24c0,.18,0,.35,0,.51a3.61,3.61,0,0,0,5.86,2.49,3.73,3.73,0,0,0,1.33-2.9c0-3.86,0-7.73,0-11.6V7.91c0-.1,0-.21,0-.32a1.3,1.3,0,0,0-1-1.16A1.26,1.26,0,0,0,6.64,7a2.25,2.25,0,0,0-.23,1c0,5.63,0,11.12,0,15.75a1.06,1.06,0,0,0,.08.37.61.61,0,0,1,0,.11l0,.12-2,.07v-.18c0-.06,0-.12,0-.18V20.2q0-6.22,0-12.44A3.14,3.14,0,0,1,7.74,4.54h0a3.15,3.15,0,0,1,2.23.9,3.28,3.28,0,0,1,.94,2.31c0,5.17,0,11,0,16.73a5.43,5.43,0,0,1-5.44,5.38ZM7.74.2a7.64,7.64,0,0,0-3.8,1A7.36,7.36,0,0,0,.24,7.55c-.07,5.59,0,11.27,0,16.77v.17a5.24,5.24,0,0,0,5.24,5.17h0a5.23,5.23,0,0,0,5.24-5.18c0-5.71,0-11.56,0-16.73a3.09,3.09,0,0,0-.88-2.17,3,3,0,0,0-2.09-.84h0a3,3,0,0,0-3,3V24.08c0,.05,0,.1,0,.16l1.53-.06a1.24,1.24,0,0,1-.08-.41c0-4.63,0-10.12,0-15.75a2.51,2.51,0,0,1,.25-1.13,1.45,1.45,0,0,1,1.68-.65A1.49,1.49,0,0,1,9.27,7.57c0,.12,0,.23,0,.34v4.8c0,3.87,0,7.74,0,11.6a3.93,3.93,0,0,1-1.4,3.06,3.81,3.81,0,0,1-6.19-2.64c0-.16,0-.34,0-.52V20c0-4,0-8.09,0-12.13A6,6,0,0,1,7.29,1.67l.47,0a6.07,6.07,0,0,1,6,5.51c0,.33,0,.67,0,1q0,7.91,0,15.81a2.22,2.22,0,0,1-.06.43.43.43,0,0,0,0,.11l1.58-.06v0a2.81,2.81,0,0,1-.05-.44V20.43c0-4,0-8.15,0-12.22a8,8,0,0,0-1.52-5,.48.48,0,0,1-.05-.14h0L12.41,1.77l-.32-.19c-.23-.15-.48-.3-.72-.43A7.51,7.51,0,0,0,7.74.2Z"/></g></g></svg>