<svg id="Layer_1" data-name="Layer 1" xmlns="http://www.w3.org/2000/svg" viewBox="0 0 108.3 108.3"><title>calendar_icon</title><path d="M435,266.4h-6.8v-5.1a8.5,8.5,0,1,0-16.9,0v5.1H370.8v-5.1a8.5,8.5,0,0,0-16.9,0v5.1h-6.8a10.1,10.1,0,0,0-10.1,10.1V351a10.1,10.1,0,0,0,10.1,10.1h88A10.1,10.1,0,0,0,445.2,351V276.5A10.1,10.1,0,0,0,435,266.4Zm-3.4,81.2H350.5V290.1h81.2Zm-71-37.2v-6.8a3.4,3.4,0,0,1,3.4-3.4h6.8a3.4,3.4,0,0,1,3.4,3.4v6.8a3.4,3.4,0,0,1-3.4,3.4H364A3.4,3.4,0,0,1,360.6,310.4Zm23.7,0v-6.8a3.4,3.4,0,0,1,3.4-3.4h6.8a3.4,3.4,0,0,1,3.4,3.4v6.8a3.4,3.4,0,0,1-3.4,3.4h-6.8A3.4,3.4,0,0,1,384.3,310.4Zm23.7,0v-6.8a3.4,3.4,0,0,1,3.4-3.4h6.8a3.4,3.4,0,0,1,3.4,3.4v6.8a3.4,3.4,0,0,1-3.4,3.4h-6.8A3.4,3.4,0,0,1,408,310.4Zm-47.4,23.7v-6.8a3.4,3.4,0,0,1,3.4-3.4h6.8a3.4,3.4,0,0,1,3.4,3.4v6.8a3.4,3.4,0,0,1-3.4,3.4H364A3.4,3.4,0,0,1,360.6,334.1Zm23.7,0v-6.8a3.4,3.4,0,0,1,3.4-3.4h6.8a3.4,3.4,0,0,1,3.4,3.4v6.8a3.4,3.4,0,0,1-3.4,3.4h-6.8A3.4,3.4,0,0,1,384.3,334.1Z" transform="translate(-336.9 -252.9)"/></svg>