<svg id="Layer_1" data-name="Layer 1" xmlns="http://www.w3.org/2000/svg" viewBox="0 0 22 22"><defs><style>.cls-1{fill:#353535;}</style></defs><title>check box600</title><path d="M2.55,3.31V18.68H17.92V8.75a.77.77,0,0,1,.72-.83.75.75,0,0,1,.81.8c0,1.33,0,2.66,0,4v6.63a.79.79,0,0,1-.89.89H1.94C1.28,20.23,1,20,1,19.3V2.67a.79.79,0,0,1,.9-.9H16.29a.77.77,0,1,1,.05,1.54H2.55Z"/><path d="M9.4,13.75,11,11.88Q15.31,7,19.57,2.11a.81.81,0,0,1,1.27,0,.79.79,0,0,1-.07,1q-2,2.25-3.95,4.52l-6.57,7.5c-.06.07-.12.15-.19.22a.77.77,0,0,1-1.18,0L5.09,11.56l-.76-.76A.77.77,0,1,1,5.42,9.72l3.79,3.79C9.27,13.57,9.32,13.65,9.4,13.75Z"/></svg>