<svg id="Layer_1" data-name="Layer 1" xmlns="http://www.w3.org/2000/svg" viewBox="0 0 95.5 108.7"><title>delete_icon</title><path d="M383.4,324.3a2.9,2.9,0,0,0,2.9,2.9h73.8a2.9,2.9,0,0,0,2.9-2.9v-72H383.4v72Zm56.2-55.9h10.9v41.1H439.6Zm-21.8,0h10.9v41.1H417.8Zm-21.8,0h10.9v41.1H395.9Z" transform="translate(-375.5 -218.5)"/><path d="M447.7,231.9V221.4a2.9,2.9,0,0,0-2.9-2.9H401.6a2.9,2.9,0,0,0-2.9,2.9v14.1H378.4a2.9,2.9,0,0,0-2.9,2.9v7.4a2.9,2.9,0,0,0,2.9,2.9h89.7a2.9,2.9,0,0,0,2.9-2.9v-7.4a2.9,2.9,0,0,0-2.9-2.9H447.7v-3.6Zm-10.9,3H409.6v-5.5h27.2v5.5Z" transform="translate(-375.5 -218.5)"/></svg>