<svg id="Layer_1" data-name="Layer 1" xmlns="http://www.w3.org/2000/svg" viewBox="0 0 16 16"><title>Divider600</title><path d="M10.57,2.86A1.58,1.58,0,0,0,9,1.28H2.86A1.58,1.58,0,0,0,1.28,2.86V9a1.58,1.58,0,0,0,1.58,1.57H5.38v1h1v-1H9A1.58,1.58,0,0,0,10.57,9V6.48h1V5.43h-1ZM9.52,9A.52.52,0,0,1,9,9.52H2.86A.52.52,0,0,1,2.33,9V2.86a.53.53,0,0,1,.53-.53H9a.52.52,0,0,1,.52.53Zm4.15,3.62h1.05v1.05a1,1,0,0,1-1.05,1.05h-1V13.67h1ZM8.45,13.67H9.5v1.05H8.45Zm2.09,0h1.05v1.05H10.54Zm4.18-7.19v1H13.67v-1h-1V5.43h1a1,1,0,0,1,1.05,1.05Zm-1.05,2h1.05V9.57H13.67Zm0,2.05h1.05v1H13.67Zm-7.24,3.1h1v1.05h-1a1,1,0,0,1-1-1.05V12.62h1Zm1-8.35h1V8.47H5.3V7.42H6.65L4.78,5.55l.74-.74L7.4,6.68Zm0,0"/></svg>