<svg id="Layer_1" data-name="Layer 1" xmlns="http://www.w3.org/2000/svg" viewBox="0 0 32 32"><defs><style>.cls-1{fill:#e2e2e2;}</style></defs><title>Drag and drop 600</title><path class="cls-1" d="M19.92,30.35l-.17,0L17,30.21l-3.61-.16L12.24,30a.57.57,0,0,1-.57-.62,3.06,3.06,0,0,1,2.1-2.76,5.33,5.33,0,0,1,1.78-.11h.24l-.88-1-3.53-3.82a1.86,1.86,0,0,1,.9-3.14,1.84,1.84,0,0,1,1.83.5c.37.37.71.76,1.08,1.15a2.07,2.07,0,0,1,.87-.84,2,2,0,0,1,1.18-.17,2,2,0,0,1,1-1.25,2.09,2.09,0,0,1,1.57-.09,1.9,1.9,0,0,1,1.38-1.17,1.76,1.76,0,0,1,1.72.47,31.79,31.79,0,0,1,2.34,2.59,6.59,6.59,0,0,1-3.86,10.39c-.37.08-.76.12-1.14.18Zm-6.87-1.52,1.88.09,3.83.16A10.23,10.23,0,0,0,21,29a5.39,5.39,0,0,0,3.28-8.53,31.93,31.93,0,0,0-2.15-2.37.68.68,0,1,0-1,.9.61.61,0,1,1-.93.79c-.19-.2-.37-.41-.57-.61a.68.68,0,0,0-1,0,.67.67,0,0,0,0,.95l.52.56a.62.62,0,1,1-.9.83l-.78-.84a.69.69,0,0,0-1-.08.68.68,0,0,0,0,1c.47.51.95,1,1.41,1.54a.58.58,0,0,1-.05.84A.59.59,0,0,1,17,24l-.37-.39L13.28,20a.72.72,0,0,0-.63-.24.62.62,0,0,0-.54.44.67.67,0,0,0,.16.72c1.41,1.51,2.8,3,4.2,4.54l1.21,1.3a.6.6,0,0,1,.13.7.57.57,0,0,1-.59.35l-.65,0c-.66,0-1.32-.06-2-.06A1.72,1.72,0,0,0,13.05,28.83Z"/><path class="cls-1" d="M1,21.25a8.63,8.63,0,0,1,.14-1A4.22,4.22,0,0,1,4.62,17a4.35,4.35,0,0,1,2.12.19c.17-.33.32-.65.49-1A.59.59,0,0,1,8,16a.6.6,0,0,1,.31.87l-.43.89c.33.37.65.67.91,1A4.23,4.23,0,0,1,5.9,25.42a4.28,4.28,0,0,1-4.85-3.58A3.06,3.06,0,0,0,1,21.52Zm1.24,0a3.05,3.05,0,1,0,3.09-3A3,3,0,0,0,2.24,21.21Z"/><path class="cls-1" d="M31,5.87c0,.29-.08.58-.14.87a3.27,3.27,0,0,1-.17.53.59.59,0,0,1-.79.34.58.58,0,0,1-.34-.77A3.31,3.31,0,0,0,29.68,5a.61.61,0,0,1,.42-.72.62.62,0,0,1,.76.42c.06.23.09.47.14.7Z"/><path class="cls-1" d="M28,1.65a4.09,4.09,0,0,1,1.35.68.6.6,0,0,1,.16.86.62.62,0,0,1-.87.13c-.28-.17-.57-.32-.86-.46a.66.66,0,0,1-.45-.59.62.62,0,0,1,.44-.58l.05,0Z"/><path class="cls-1" d="M25.53,1.65l.19.06a.61.61,0,0,1,.39.53.59.59,0,0,1-.32.57l-1.05.58a.63.63,0,0,1-.82-.19.61.61,0,0,1,.15-.82,4.53,4.53,0,0,1,1.37-.73Z"/><path class="cls-1" d="M22.42,5.55c0-.27.08-.56.15-.84a.59.59,0,0,1,.71-.43.6.6,0,0,1,.47.7c0,.14-.05.28-.06.42s0,.39,0,.58a.64.64,0,0,1-.67.71,7.18,7.18,0,0,0-1.1.23c-.17,0-.33.09-.49.13a.61.61,0,0,1-.76-.41.6.6,0,0,1,.4-.75C21.5,5.76,22,5.67,22.42,5.55Z"/><path class="cls-1" d="M18,8.56a.63.63,0,0,1-.65-.43.58.58,0,0,1,.25-.68c.39-.22.78-.43,1.19-.62a.61.61,0,0,1,.51,1.1c-.36.19-.72.38-1.09.56A1.25,1.25,0,0,1,18,8.56Z"/><path class="cls-1" d="M29.17,8.9a.47.47,0,0,1-.29.47c-.45.19-.9.37-1.37.52a.59.59,0,0,1-.67-.46.6.6,0,0,1,.41-.72l1.07-.41A.61.61,0,0,1,29.17,8.9Z"/><path class="cls-1" d="M23.46,8.31a.65.65,0,0,1,.36-.62.6.6,0,0,1,.65.09l.9.66a.61.61,0,0,1,.23.8.6.6,0,0,1-.78.28,3.65,3.65,0,0,1-1.22-.91A1,1,0,0,1,23.46,8.31Z"/><path class="cls-1" d="M14.18,9.88a.58.58,0,0,1,.25-.5c.34-.23.69-.47,1-.69a.62.62,0,0,1,.85.18.61.61,0,0,1-.18.84c-.33.23-.67.45-1,.67a.61.61,0,0,1-1-.5Z"/><path class="cls-1" d="M11.9,12.72a.67.67,0,0,1-.6-.42.57.57,0,0,1,.15-.65c.33-.28.66-.56,1-.82a.59.59,0,0,1,.84.11.6.6,0,0,1-.11.86c-.3.25-.6.5-.91.73A1.69,1.69,0,0,1,11.9,12.72Z"/><path class="cls-1" d="M8.59,14.59a1.25,1.25,0,0,1,.16-.35c.3-.34.61-.66.93-1a.6.6,0,0,1,.83,0,.59.59,0,0,1,0,.82c-.28.31-.58.62-.88.92a.62.62,0,0,1-.68.12A.66.66,0,0,1,8.59,14.59Z"/></svg>