<svg id="Layer_1" data-name="Layer 1" xmlns="http://www.w3.org/2000/svg" viewBox="0 0 32 32"><title>dropdown0</title><path d="M16.18,24a2.24,2.24,0,0,1,.23-.34l10.5-10.5a1,1,0,0,1,1.58-.1,1,1,0,0,1,.07,1.42l-.23.24L16.92,26.11a1.1,1.1,0,0,1-1.83,0L3.7,14.72a3,3,0,0,1-.25-.26A1,1,0,0,1,3.5,13a1,1,0,0,1,1.44,0c.66.61,1.29,1.25,1.94,1.88l9,8.83Z"/><path d="M16.18,16.66a2.24,2.24,0,0,1,.23-.34l10.5-10.5a1,1,0,0,1,1.58-.1,1,1,0,0,1,.07,1.42,2.61,2.61,0,0,1-.23.24L16.92,18.8a1.1,1.1,0,0,1-1.83,0L3.7,7.41a2,2,0,0,1-.25-.26,1,1,0,0,1,0-1.42,1,1,0,0,1,1.44-.05c.66.61,1.29,1.25,1.94,1.88l9,8.83Z"/></svg>