<svg id="Layer_1" data-name="Layer 1" xmlns="http://www.w3.org/2000/svg" viewBox="0 0 32 32"><defs><style>.cls-1{fill:#d8595a;}</style></defs><title>Edit web form600</title><path class="cls-1" d="M28.69,19.81a.75.75,0,0,0-.75.74v6.64a2.24,2.24,0,0,1-2.24,2.24h-21a2.25,2.25,0,0,1-2.25-2.24V7.72A2.25,2.25,0,0,1,4.74,5.48h6.63a.75.75,0,0,0,0-1.5H4.74A3.74,3.74,0,0,0,1,7.72V27.19a3.73,3.73,0,0,0,3.74,3.73h21a3.75,3.75,0,0,0,3.74-3.73V20.55a.75.75,0,0,0-.75-.74Zm0,0"/><path class="cls-1" d="M29.14,2.06a3.36,3.36,0,0,0-4.75,0L11.06,15.39a.7.7,0,0,0-.2.33L9.11,22.05A.75.75,0,0,0,10,23l6.33-1.76a.73.73,0,0,0,.33-.19L30,7.69a3.36,3.36,0,0,0,0-4.75ZM12.68,15.88,23.59,5l3.52,3.51L16.2,19.39ZM12,17.29l2.81,2.81L10.9,21.17ZM29,6.64l-.79.79L24.65,3.91l.79-.79a1.86,1.86,0,0,1,2.64,0L29,4a1.88,1.88,0,0,1,0,2.65Zm0,0"/></svg>