<svg id="Layer_1" data-name="Layer 1" xmlns="http://www.w3.org/2000/svg" viewBox="0 0 16 16"><title>empty space600</title><path d="M7.49,4.64h7.25a.36.36,0,0,0,.36-.36.37.37,0,0,0-.36-.37H7.49a.37.37,0,0,0-.36.37.36.36,0,0,0,.36.36Z"/><path d="M14.74,4.8H7.5A.52.52,0,0,1,7,4.28a.53.53,0,0,1,.53-.53h7.24a.53.53,0,0,1,.53.53A.52.52,0,0,1,14.74,4.8ZM7.5,4.08a.2.2,0,0,0-.2.2.19.19,0,0,0,.2.19h7.24a.19.19,0,0,0,.2-.19.2.2,0,0,0-.2-.2Z"/><path d="M7.49,7.54h5.26a.36.36,0,0,0,.36-.36.37.37,0,0,0-.36-.37H7.49a.37.37,0,0,0-.36.37.36.36,0,0,0,.36.36Z"/><path d="M12.75,7.7H7.5a.53.53,0,1,1,0-1h5.25a.53.53,0,1,1,0,1ZM7.5,7a.2.2,0,1,0,0,.39h5.25a.2.2,0,1,0,0-.39Z"/><path d="M14.74,9.71H7.49a.36.36,0,0,0-.36.36.37.37,0,0,0,.36.37h7.25a.37.37,0,0,0,.36-.37A.36.36,0,0,0,14.74,9.71Z"/><path d="M14.74,10.6H7.5A.53.53,0,0,1,7,10.07a.52.52,0,0,1,.53-.52h7.24a.52.52,0,0,1,.53.52A.53.53,0,0,1,14.74,10.6ZM7.5,9.88a.2.2,0,1,0,0,.39h7.24a.2.2,0,1,0,0-.39Z"/><path d="M11.3,12.61H7.49a.36.36,0,1,0,0,.72H11.3a.36.36,0,0,0,0-.72Z"/><path d="M11.3,13.5H7.5a.53.53,0,0,1,0-1.06h3.8a.53.53,0,0,1,0,1.06Zm-3.8-.72a.19.19,0,0,0-.2.19.2.2,0,0,0,.2.2h3.8a.2.2,0,0,0,.2-.2.19.19,0,0,0-.2-.19Z"/><path d="M5.18,6.09a.38.38,0,0,0,.32-.22.36.36,0,0,0,0-.4l-2-2.62a.35.35,0,0,0-.34-.15h0a.51.51,0,0,0-.23.15L1,5.45a.48.48,0,0,0,0,.42.42.42,0,0,0,.34.22H2.75v5.07H1.28a.4.4,0,0,0-.33.22.39.39,0,0,0,0,.4L2.88,14.4a.51.51,0,0,0,.23.15h0a.35.35,0,0,0,.34-.15l2-2.6a.48.48,0,0,0,0-.42.41.41,0,0,0-.32-.22H3.65V6.09Z"/><path d="M3.16,14.72H3.09a.67.67,0,0,1-.33-.19L.86,11.87a.51.51,0,0,1,0-.57.55.55,0,0,1,.46-.3H2.58V6.25H1.28A.58.58,0,0,1,.79,6a.66.66,0,0,1,0-.58L2.74,2.75a.71.71,0,0,1,.32-.21.54.54,0,0,1,.53.21l2,2.62A.53.53,0,0,1,5.65,6a.55.55,0,0,1-.46.3H3.82V11H5.18a.58.58,0,0,1,.47.3.68.68,0,0,1-.06.58l-2,2.62A.53.53,0,0,1,3.16,14.72ZM1.28,11.33a.22.22,0,0,0-.18.12.19.19,0,0,0,0,.22L3,14.31a.42.42,0,0,0,.15.08.19.19,0,0,0,.16-.08l2-2.62a.29.29,0,0,0,0-.26.24.24,0,0,0-.18-.11H3.49V5.92H5.17a.2.2,0,0,0,.18-.12.19.19,0,0,0,0-.22L3.32,3a.2.2,0,0,0-.19-.09A.76.76,0,0,0,3,3L1.09,5.55a.3.3,0,0,0,0,.26.23.23,0,0,0,.2.11H2.91v5.41Z"/></svg>