<svg id="Layer_1" data-name="Layer 1" xmlns="http://www.w3.org/2000/svg" viewBox="0 0 32 32"><defs><style>.cls-1{fill:#acacac;}</style></defs><title>Empty Space600</title><path class="cls-1" d="M15.12,9.65H27.79A.64.64,0,0,0,28.43,9a.64.64,0,0,0-.64-.64H15.12a.64.64,0,0,0-.64.64.64.64,0,0,0,.64.63Z"/><path class="cls-1" d="M15.12,14.72h9.19a.63.63,0,0,0,.63-.63.64.64,0,0,0-.63-.64H15.12a.64.64,0,0,0-.64.64.64.64,0,0,0,.64.63Z"/><path class="cls-1" d="M27.79,18.53H15.12a.63.63,0,1,0,0,1.26H27.79a.63.63,0,1,0,0-1.26Z"/><path class="cls-1" d="M21.77,23.6H15.12a.64.64,0,0,0-.64.63.64.64,0,0,0,.64.64h6.65a.64.64,0,0,0,.64-.64A.64.64,0,0,0,21.77,23.6Z"/><path class="cls-1" d="M11.06,12.19a.72.72,0,0,0,.57-.38.66.66,0,0,0-.06-.7L8.05,6.51a.64.64,0,0,0-.6-.25h0A1.12,1.12,0,0,0,7,6.51L3.67,11.08a.85.85,0,0,0,0,.73.75.75,0,0,0,.6.38H6.81v8.87H4.24a.7.7,0,0,0-.57.38.64.64,0,0,0,.07.7L7,26.74a1.12,1.12,0,0,0,.42.25h0a.64.64,0,0,0,.6-.25l3.48-4.57a.85.85,0,0,0,.1-.73.76.76,0,0,0-.57-.38H8.4V12.19Z"/></svg>