<svg id="Layer_1" data-name="Layer 1" xmlns="http://www.w3.org/2000/svg" viewBox="0 0 16 16"><title>Heading name600</title><path d="M12.55,1.28H3.45A2.46,2.46,0,0,0,1,3.74V9.35A2.45,2.45,0,0,0,3.45,11.8H9.24L12,14.57a.46.46,0,0,0,.34.15.58.58,0,0,0,.19,0,.49.49,0,0,0,.3-.45V11.78A2.46,2.46,0,0,0,15,9.35V3.74a2.46,2.46,0,0,0-2.45-2.46ZM14,9.35a1.47,1.47,0,0,1-1.47,1.47h-.19a.49.49,0,0,0-.49.49V13L9.8,11a.52.52,0,0,0-.35-.14h-6A1.47,1.47,0,0,1,2,9.35V3.74A1.47,1.47,0,0,1,3.45,2.27h9.1A1.47,1.47,0,0,1,14,3.74Zm0,0"/><path d="M11.61,4.76H4.39a.49.49,0,1,0,0,1h7.22a.49.49,0,0,0,0-1Zm0,0"/><path d="M11.61,7.51H4.39a.49.49,0,1,0,0,1h7.22a.49.49,0,0,0,0-1Zm0,0"/></svg>