<svg id="Layer_1" data-name="Layer 1" xmlns="http://www.w3.org/2000/svg" viewBox="0 0 93.6 93.6"><defs><style>.cls-1{fill:#030104;}</style></defs><title>info_icon</title><path class="cls-1" d="M455.8,285a46.8,46.8,0,1,0,46.8,46.8A46.8,46.8,0,0,0,455.8,285Zm9.7,72.5-5.8,2.2a15.2,15.2,0,0,1-5,.7,10,10,0,0,1-6.8-2.1,6.9,6.9,0,0,1-2.4-5.4,19.7,19.7,0,0,1,.2-2.6c.1-.9.3-1.9.6-3l3-10.7c.3-1,.5-2,.7-2.9a12.8,12.8,0,0,0,.3-2.5,3.9,3.9,0,0,0-.8-2.8,4.8,4.8,0,0,0-3.2-.8,8.5,8.5,0,0,0-2.4.4l-2.1.7.8-3.3,5.7-2.1a16.7,16.7,0,0,1,5.1-.9,9.8,9.8,0,0,1,6.7,2.1,7,7,0,0,1,2.4,5.5q0,.7-.2,2.4a16.4,16.4,0,0,1-.6,3.2l-3,10.6c-.2.9-.5,1.8-.7,2.9a15.4,15.4,0,0,0-.3,2.5,3.6,3.6,0,0,0,.9,2.9,5.3,5.3,0,0,0,3.3.8,9.5,9.5,0,0,0,2.5-.4l2-.7Zm-.5-43.1a7.2,7.2,0,0,1-5.1,1.9,7.2,7.2,0,0,1-5.1-1.9,6.2,6.2,0,0,1-2.1-4.7,6.3,6.3,0,0,1,2.1-4.7,7.2,7.2,0,0,1,5.1-2,7.1,7.1,0,0,1,5.1,2,6.4,6.4,0,0,1,0,9.5Z" transform="translate(-409 -285)"/></svg>