<svg id="Layer_1" data-name="Layer 1" xmlns="http://www.w3.org/2000/svg" viewBox="0 0 224 283"><defs><style>.cls-1{fill:#010101;}.cls-2{fill:none;}</style></defs><title>initiate_ico</title><path class="cls-1" d="M727.2,416.2a169.6,169.6,0,0,0,5.5-42.1c0-85.2-70-154.1-70-154.1s-70,68.9-70,154.1a169.4,169.4,0,0,0,5.5,42.1,98,98,0,0,0-47.6,84l74.5-21.3c4.8,8,9.6,15,14.1,21.3h19.4l-5.4-35.5-31.6-1.9,39.4-83.7a28.1,28.1,0,1,1,5.1-.2l43.7,83.3-31.7.4-4.6,37.5h12.5a247.6,247.6,0,0,0,14.1-21.3l74.5,21.3v-.4A97.5,97.5,0,0,0,727.2,416.2Z" transform="translate(-550.7 -220)"/><line class="cls-2" x1="74.7" y1="283" x2="64.3" y2="283"/></svg>