<svg id="Layer_2" data-name="Layer 2" xmlns="http://www.w3.org/2000/svg" viewBox="0 0 225.4 237.4"><title>new_doc_icon</title><path d="M358.5,363.9h93.9v21.4H343.9a6.1,6.1,0,0,1-4.7-2,6.8,6.8,0,0,1-1.8-4.8V198.2h.3a1.5,1.5,0,0,1,.5-1l49.1-48.3v-.8h1.6l.5-.3h12.5l.5.3h96a6.3,6.3,0,0,1,6.5,6.5v72.5H483.8V169.3H404.2v42.5q0,2.6-2.3,2.6H358.5Zm200.9-65.5H514.6V253.3q0-3.4-3.4-3.4H479.6q-3.4,0-3.4,3.4v45.1H431.1q-3.4,0-3.4,3.4v31.6q0,3.4,3.4,3.4h45.1v45.1q0,3.4,3.4,3.4h31.6q3.4,0,3.4-3.4V336.8h44.9q3.4,0,3.4-3.4V301.8Q562.8,298.4,559.4,298.4Z" transform="translate(-337.4 -147.9)"/></svg>