<svg id="Layer_1" data-name="Layer 1" xmlns="http://www.w3.org/2000/svg" viewBox="0 0 62.2 32.4"><title>newhire_ico</title><path d="M441.4,320.6s-7.8-2-8.8-4.1a3.5,3.5,0,0,1,.5-3.1l.7-1h0a16,16,0,0,0,2.4-8.1,8.7,8.7,0,0,0-8.4-9.1h0a8.7,8.7,0,0,0-8.4,9.1,16,16,0,0,0,2.4,8.1h0l.7,1a3.5,3.5,0,0,1,.5,3.1c-1.1,2.2-8.8,4.1-8.8,4.1a3.7,3.7,0,0,0-2.6,3.5v3.4h32.6v-3.4A3.7,3.7,0,0,0,441.4,320.6Z" transform="translate(-396.5 -295.1)"/><path d="M456.8,322.5h0c-.1,0-5.6-1.4-6.4-3a2.5,2.5,0,0,1,.4-2.3l.5-.7h0a11.7,11.7,0,0,0,1.7-5.9,6.3,6.3,0,0,0-6.1-6.6h0a6.3,6.3,0,0,0-6.1,6.6,11.6,11.6,0,0,0,1.7,5.9h0l.5.7h.1a7.3,7.3,0,0,1,4.6,6.8v3.4h11.2v-2.5A2.7,2.7,0,0,0,456.8,322.5Z" transform="translate(-396.5 -295.1)"/><path d="M412.3,317.2l.5-.7h0a11.6,11.6,0,0,0,1.7-5.9,6.3,6.3,0,0,0-6.1-6.6h0a6.3,6.3,0,0,0-6.1,6.6,11.6,11.6,0,0,0,1.7,5.9h0l.5.7a2.5,2.5,0,0,1,.4,2.3c-.8,1.6-6.4,3-6.4,3h0a2.7,2.7,0,0,0-1.9,2.6v2.5h11.2v-3.4a7.3,7.3,0,0,1,4.6-6.8Z" transform="translate(-396.5 -295.1)"/></svg>