<svg id="Layer_1" data-name="Layer 1" xmlns="http://www.w3.org/2000/svg" viewBox="0 0 32 32"><defs><style>.cls-1{fill:#757575;}</style></defs><title>Preview icon svg V.2600</title><path class="cls-1" d="M29.08,16a.64.64,0,0,1-.06.1c-1.3,1.29-2.56,2.65-3.92,3.88a13.12,13.12,0,0,1-10.62,3.4,13.19,13.19,0,0,1-8-3.92c-1.09-1.09-2.18-2.19-3.28-3.28A2.68,2.68,0,0,0,2.92,16c0-.09,0-.12.06-.14,1.36-1.35,2.66-2.76,4.1-4A13,13,0,0,1,17.35,8.58a13.24,13.24,0,0,1,8.26,4Zm-1.26,0-.18-.19c-1-1-1.91-1.93-2.88-2.87a12.35,12.35,0,0,0-9.43-3.57A11.77,11.77,0,0,0,8,12.25c-1.33,1.14-2.52,2.44-3.77,3.67,0,0,0,0,0,.06.93.94,1.87,1.87,2.81,2.81a12.35,12.35,0,0,0,9.17,3.8,12,12,0,0,0,8-3c1.07-.91,2-1.95,3-2.93Z"/><path class="cls-1" d="M16,10.24A5.75,5.75,0,1,1,10.24,16,5.72,5.72,0,0,1,16,10.24Zm0,.9A4.85,4.85,0,1,0,20.84,16,4.85,4.85,0,0,0,16,11.14Z"/><path class="cls-1" d="M12.43,15.39a3.13,3.13,0,0,1,3-2.94c.34,0,.54.15.55.43s-.17.43-.5.46a2.19,2.19,0,0,0-2.14,2.13c0,.24-.09.45-.36.51a.39.39,0,0,1-.48-.21A1.75,1.75,0,0,1,12.43,15.39Z"/></svg>