<svg id="Layer_1" data-name="Layer 1" xmlns="http://www.w3.org/2000/svg" viewBox="0 0 32 32"><defs><style>.cls-1{fill:#1d1d1b;}</style></defs><title>validation_Black600</title><path class="cls-1" d="M30.33,1.53A.94.94,0,0,0,29,1.68l-15.11,19-5-6.23a.93.93,0,0,0-1.33-.14,1,1,0,0,0-.14,1.34l5.47,6.89a.94.94,0,0,0,.81.47l.16,0,.1,0a1,1,0,0,0,.77-.4L30.47,2.87a1,1,0,0,0-.14-1.34Zm0,0"/><path class="cls-1" d="M28.46,11a1,1,0,0,0-.95,1V27.81a1,1,0,0,1-.94,1H4.16a1,1,0,0,1-1-1V5.17a1,1,0,0,1,1-1H19.67a1,1,0,0,0,0-1.91H4.16A2.86,2.86,0,0,0,1.32,5.17V27.81a2.86,2.86,0,0,0,2.84,2.87h22.4a2.87,2.87,0,0,0,2.85-2.87V12a1,1,0,0,0-.95-1Zm0,0"/></svg>