<svg id="Layer_1" data-name="Layer 1" xmlns="http://www.w3.org/2000/svg" viewBox="0 0 32 32"><defs><style>.cls-1{fill:#757575;stroke:#757575;stroke-miterlimit:10;stroke-width:0.35px;}</style></defs><title>Preview icon svg V.2600</title><path class="cls-1" d="M30.83,16l-.07.1c-1.48,1.47-2.9,3-4.45,4.4a14.82,14.82,0,0,1-12,3.86,14.93,14.93,0,0,1-9.11-4.45L1.44,16.23a2.07,2.07,0,0,0-.27-.2,1.17,1.17,0,0,1,.07-.15c1.54-1.53,3-3.14,4.64-4.57A14.75,14.75,0,0,1,17.53,7.59a15,15,0,0,1,9.36,4.5C28.2,13.4,29.51,14.7,30.83,16Zm-1.44,0-.2-.22c-1.09-1.09-2.16-2.19-3.27-3.26a14,14,0,0,0-10.68-4A13.34,13.34,0,0,0,7,11.75C5.44,13,4.09,14.52,2.67,15.91c0,0,0,0,0,.07l3.18,3.19a14,14,0,0,0,10.4,4.3,13.62,13.62,0,0,0,9-3.36c1.21-1,2.28-2.22,3.42-3.33Z"/><path class="cls-1" d="M16,9.47A6.52,6.52,0,1,1,9.47,16,6.5,6.5,0,0,1,16,9.47Zm0,1A5.5,5.5,0,1,0,21.49,16,5.5,5.5,0,0,0,16,10.49Z"/><path class="cls-1" d="M12,15.31A3.53,3.53,0,0,1,15.37,12c.4,0,.62.17.63.49s-.19.49-.57.52A2.47,2.47,0,0,0,13,15.4c0,.28-.11.51-.41.58a.47.47,0,0,1-.55-.24A2.05,2.05,0,0,1,12,15.31Z"/></svg>