<svg id="Layer_1" data-name="Layer 1" xmlns="http://www.w3.org/2000/svg" viewBox="0 0 218.3 243.2"><title>Preview_icon</title><path d="M349.9,210h44.4q2.4,0,2.4-2.7V163.8h81.5v44h21.6v-59a6.4,6.4,0,0,0-6.7-6.7H394.8l-.5-.3H381.4l-.5.3h-1.6v.8l-50.2,49.4a1.5,1.5,0,0,0-.5,1.1h-.3V378.1a7,7,0,0,0,1.9,4.9,6.3,6.3,0,0,0,4.8,2H446.1V363.1H349.9Z" transform="translate(-328.3 -141.9)"/><path d="M543.3,351.9l-34.2-34.2a62.8,62.8,0,0,0,11.4-36.1,63.6,63.6,0,1,0-27.3,51.9l34.2,34.2a11.2,11.2,0,0,0,15.8-15.8Zm-86.1-29.4a41,41,0,1,1,40.9-41A40.8,40.8,0,0,1,457.2,322.5Z" transform="translate(-328.3 -141.9)"/></svg>