<svg id="Layer_1" data-name="Layer 1" xmlns="http://www.w3.org/2000/svg" viewBox="0 0 77.2 83.3"><title>reports_icon</title><rect x="11.9" y="12.8" width="23.8" height="6.66"/><rect x="11.9" y="26.2" width="35.7" height="6.66"/><path d="M454.4,310.1,433,288.7a2.1,2.1,0,0,0-1.5-.6h-45a8.6,8.6,0,0,0-8.6,8.6v66.1a8.6,8.6,0,0,0,8.6,8.6h60.1a8.6,8.6,0,0,0,8.6-8.6V311.7A2.1,2.1,0,0,0,454.4,310.1Zm-3.7,52.6a4.3,4.3,0,0,1-4.3,4.3H386.4a4.3,4.3,0,0,1-4.3-4.3V296.6a4.3,4.3,0,0,1,4.3-4.3h42.9v12.9a8.6,8.6,0,0,0,8.6,8.6h12.9Z" transform="translate(-377.9 -288.1)"/><path d="M391.9,324.2,408,339l7.6-6.8a1.5,1.5,0,0,1,2.2.1l12.9,14.2,10.3-4.4h.6a2,2,0,0,1,1.7,2.2v12.4a2,2,0,0,1-1.7,2.2H390.9a2,2,0,0,1-1.7-2.2V326a2,2,0,0,1,1.7-2.2,1.5,1.5,0,0,1,1,.4Z" transform="translate(-377.9 -288.1)"/></svg>