<svg id="Layer_1" data-name="Layer 1" xmlns="http://www.w3.org/2000/svg" viewBox="0 0 32 32"><title>Rec0</title><path d="M29,16.74c0,.33-.07.67-.12,1A13,13,0,0,1,14.64,28.92,12.58,12.58,0,0,1,7.16,25.5a12.88,12.88,0,0,1-4-7.74c0-.35-.06-.71-.1-1.05,0-.09,0-.14.1-.15l2.67-.5h0s0,.08,0,.12a10,10,0,0,0,3.4,7.4A9.65,9.65,0,0,0,14.5,26,9.92,9.92,0,0,0,23,23.38a9.71,9.71,0,0,0,3.06-5.81A10.16,10.16,0,0,0,17.57,6a10.66,10.66,0,0,0-5.82.76,9.76,9.76,0,0,0-3,1.91l-.13.1L11,11l-1,.2-6.8,1.24-.13,0v-.12a.36.36,0,0,0,0-.11c.15-.8.29-1.6.44-2.4.28-1.52.55-3,.83-4.58,0-.24.1-.49.15-.77L6.66,6.71l0,0,.06-.05A13.38,13.38,0,0,1,14.3,3.11c.34,0,.67-.07,1-.11h1.44l.19,0,.92.09A12.83,12.83,0,0,1,25.68,7.3a12.74,12.74,0,0,1,3.23,7c0,.32.07.65.11,1Z"/><path d="M16.25,10.49a9.71,9.71,0,0,1,3.38.52,5.75,5.75,0,0,1,.82.42,1.38,1.38,0,0,1,.31.28.7.7,0,0,1,0,.94,1.94,1.94,0,0,1-.7.53,6.3,6.3,0,0,1-1.9.56,11.89,11.89,0,0,1-4.79-.18A4,4,0,0,1,12,13a1.62,1.62,0,0,1-.33-.31.69.69,0,0,1,0-.93,2.48,2.48,0,0,1,1.13-.7,9.57,9.57,0,0,1,3.27-.52Z"/><path d="M21,19.21c0,.47,0,.93,0,1.39a.72.72,0,0,1-.3.52,2.67,2.67,0,0,1-.89.53,8.31,8.31,0,0,1-2.36.52,11.85,11.85,0,0,1-4-.28,4.56,4.56,0,0,1-1.33-.55A1.57,1.57,0,0,1,11.7,21a1,1,0,0,1-.2-.47c0-.42,0-.84,0-1.26,0,0,0,0,0-.06l.05,0a6.53,6.53,0,0,0,2.67.91A12.87,12.87,0,0,0,19.05,20a5.8,5.8,0,0,0,1.84-.75Z"/><path d="M11.49,13.67l.06,0a6.91,6.91,0,0,0,2.82.93,12.71,12.71,0,0,0,4.6-.17,5.52,5.52,0,0,0,1.92-.76l.06,0v.19c0,.34,0,.68,0,1a.88.88,0,0,1-.31.7,2.88,2.88,0,0,1-.89.53,8.93,8.93,0,0,1-2.8.55,11.37,11.37,0,0,1-3.44-.29,4.4,4.4,0,0,1-1.44-.58,1.77,1.77,0,0,1-.41-.36A.85.85,0,0,1,11.5,15C11.48,14.56,11.49,14.13,11.49,13.67Z"/><path d="M21,16.43c0,.48,0,.93,0,1.38a.7.7,0,0,1-.26.49,3,3,0,0,1-1.1.64,8.38,8.38,0,0,1-2.16.44,11.83,11.83,0,0,1-3.89-.24,4.5,4.5,0,0,1-1.37-.54,3.15,3.15,0,0,1-.41-.31.81.81,0,0,1-.26-.64c0-.4,0-.8,0-1.21l.06,0a6.32,6.32,0,0,0,2.45.87,12.74,12.74,0,0,0,5.18-.16,5.17,5.17,0,0,0,1.68-.7Z"/></svg>