<svg id="Layer_1" data-name="Layer 1" xmlns="http://www.w3.org/2000/svg" viewBox="0 0 97.4 81.1"><title>settings_icon</title><path d="M439.6,350.8h-3.2V306.6a4.5,4.5,0,1,0-9,0v44.2h-3.2a5.8,5.8,0,0,0-5.8,5.8v8.2a5.8,5.8,0,0,0,5.8,5.8h3.2v8.1a4.5,4.5,0,0,0,9,0v-8.1h3.2a5.8,5.8,0,0,0,5.8-5.8v-8.2A5.8,5.8,0,0,0,439.6,350.8Z" transform="translate(-418.3 -302.1)"/><path d="M473.8,312.9h-3.2v-6.3a4.5,4.5,0,1,0-9,0v6.3h-3.2a5.8,5.8,0,0,0-5.8,5.8V327a5.8,5.8,0,0,0,5.8,5.8h3.2v46a4.5,4.5,0,0,0,9,0v-46h3.2a5.8,5.8,0,0,0,5.8-5.8v-8.2A5.8,5.8,0,0,0,473.8,312.9Z" transform="translate(-418.3 -302.1)"/><path d="M509.9,336.4h-3.2V306.6a4.5,4.5,0,1,0-9,0v29.7h-3.2a5.8,5.8,0,0,0-5.8,5.8v8.2a5.8,5.8,0,0,0,5.8,5.8h3.2v22.5a4.5,4.5,0,0,0,9,0V356.2h3.2a5.8,5.8,0,0,0,5.8-5.8v-8.2A5.8,5.8,0,0,0,509.9,336.4Z" transform="translate(-418.3 -302.1)"/></svg>