<svg xmlns="http://www.w3.org/2000/svg" viewBox="0 0 22.09 21.68"><title>Asset 3</title><g id="Layer_2" data-name="Layer 2"><g id="Layer_1-2" data-name="Layer 1"><path d="M21.31,20.14H.79a.78.78,0,0,0-.77.77.79.79,0,0,0,.77.77H21.32a.77.77,0,0,0,.77-.77.79.79,0,0,0-.78-.77Z"/><path d="M0,13.33,0,17a.79.79,0,0,0,.23.56.74.74,0,0,0,.54.23l3.64,0A.75.75,0,0,0,5,17.54L17.52,5a.8.8,0,0,0,0-1.11L13.92.23a.78.78,0,0,0-1.11,0L10.3,2.76.24,12.79a.84.84,0,0,0-.22.54ZM13.37,1.88,15.9,4.41,14.48,5.83,12,3.3ZM1.58,13.67l9.26-9.26,2.53,2.53L4.11,16.19H1.56Z"/></g></g></svg>