<svg id="Layer_1" data-name="Layer 1" xmlns="http://www.w3.org/2000/svg" viewBox="0 0 22 22"><defs><style>.cls-1{fill:#353535;}</style></defs><title>text600</title><path d="M10.47,9.07H8.9L10,3.1H21L19.92,9c-.12,0-1.53,0-1.63,0l.79-4C19,5,16.41,5,16.17,5l-2.31,12h1.8c-.1.61-.21,1.2-.31,1.81l-5.52,0L10.19,17h1.62L14.15,5H11.3Z"/><path d="M11.52,12.73l-.22,1.38H1.88l.26-1.38Z"/><path d="M9,17.52l-.23,1.37H1l.23-1.37C1.31,17.5,8.84,17.49,9,17.52Z"/><path d="M3.67,4.49,3.9,3.1H9L8.79,4.49Z"/><path d="M7.83,9.3H2.77L3,7.92h5Z"/></svg>