<svg id="Layer_1" data-name="Layer 1" xmlns="http://www.w3.org/2000/svg" viewBox="0 0 72.7 72.6"><title>time_icon</title><path d="M445.8,286a36.1,36.1,0,0,0-19.7,5.8,36.7,36.7,0,0,0-10.9,10.9,36.2,36.2,0,0,0,30.6,55.9,35.9,35.9,0,0,0,19.7-5.8,36.7,36.7,0,0,0,10.9-10.9A36.2,36.2,0,0,0,445.8,286ZM458,345.4a25.9,25.9,0,0,1-12.2,3,26.2,26.2,0,0,1-26.2-26.1,25.9,25.9,0,0,1,3-12.2,26.1,26.1,0,0,1,10.9-10.9,25.9,25.9,0,0,1,12.2-3,26.2,26.2,0,0,1,26.2,26.2,25.9,25.9,0,0,1-3,12.2A26.9,26.9,0,0,1,458,345.4Z" transform="translate(-409.4 -286)"/><polygon points="51.6 25.2 37 39.9 32.4 35.2 47 20.5 51.6 25.2"/><rect x="32.4" y="35.2" width="6.6" height="13.7"/></svg>