<svg id="Layer_1" data-name="Layer 1" xmlns="http://www.w3.org/2000/svg" viewBox="0 0 116.6 116.6"><title>upload_icon</title><path d="M448.3,325.8l-34.2-41a4.1,4.1,0,0,0-5.7,0l-34.2,41a3.4,3.4,0,0,0,2.6,5.6H394v38.1a3.4,3.4,0,0,0,3.4,3.4h27.8a3.4,3.4,0,0,0,3.4-3.4V331.4h17.1A3.4,3.4,0,0,0,448.3,325.8Z" transform="translate(-353 -283.6)"/><path d="M466.2,352.4H452.5a3.4,3.4,0,0,0-3.4,3.4v23.9H373.5V355.8a3.4,3.4,0,0,0-3.4-3.4H356.4a3.4,3.4,0,0,0-3.4,3.4V390a10.3,10.3,0,0,0,10.3,10.3h96.1A10.3,10.3,0,0,0,469.6,390V355.8A3.4,3.4,0,0,0,466.2,352.4Z" transform="translate(-353 -283.6)"/></svg>