<svg id="Layer_1" data-name="Layer 1" xmlns="http://www.w3.org/2000/svg" viewBox="0 0 32 32"><defs><style>.cls-1{fill:#d8595a;}.cls-2{fill:#fff;}</style></defs><title>PDF Icon100</title><circle class="cls-1" cx="16" cy="16" r="15.5"/><path class="cls-2" d="M16,2.36A13.64,13.64,0,1,0,29.64,16,13.66,13.66,0,0,0,16,2.36Zm0,26.31A12.67,12.67,0,1,1,28.67,16,12.69,12.69,0,0,1,16,28.67Zm0,0"/><path class="cls-2" d="M16,29.94A13.94,13.94,0,1,1,29.94,16,14,14,0,0,1,16,29.94ZM16,2.65A13.35,13.35,0,1,0,29.35,16,13.37,13.37,0,0,0,16,2.65ZM16,29A13,13,0,1,1,29,16,13,13,0,0,1,16,29ZM16,3.63A12.37,12.37,0,1,0,28.37,16,12.39,12.39,0,0,0,16,3.63Z"/><path class="cls-2" d="M21.85,10.15H10.15a.49.49,0,0,0,0,1h11.7a.49.49,0,0,0,0-1Zm0,0"/><path class="cls-2" d="M21.85,11.42H10.15a.78.78,0,1,1,0-1.56h11.7a.78.78,0,0,1,0,1.56Zm-11.7-1a.19.19,0,0,0,0,.38h11.7a.19.19,0,0,0,0-.38Z"/><path class="cls-2" d="M21.85,15.51H10.15a.49.49,0,0,0,0,1h11.7a.49.49,0,1,0,0-1Zm0,0"/><path class="cls-2" d="M21.85,16.78H10.15a.78.78,0,0,1,0-1.56h11.7a.78.78,0,0,1,0,1.56Zm-11.7-1A.19.19,0,0,0,10,16a.2.2,0,0,0,.19.19h11.7A.2.2,0,0,0,22,16a.19.19,0,0,0-.19-.19Z"/><path class="cls-2" d="M15.93,20.67h-6c-.13,0-.25.22-.25.49s.12.49.25.49h6c.14,0,.26-.22.26-.49s-.12-.49-.26-.49Zm0,0"/><path class="cls-2" d="M15.93,21.94h-6c-.31,0-.54-.33-.54-.78s.23-.78.54-.78h6c.32,0,.55.33.55.78S16.25,21.94,15.93,21.94ZM10,21.35h5.87a.62.62,0,0,0,0-.38H10a.62.62,0,0,0,0,.38Z"/><path class="cls-2" d="M23.65,26.59l1.06-1.07s0,0,0,0l-3.54-3.95,3.48-1.49-8.08-2.52,1.57,7.94L20,22.55l3.54,3.95Z"/><path class="cls-2" d="M23.67,27l-.21-.16-.12-.12L20.06,23,18,26.24,16.16,17.1,25.48,20l-3.83,1.65,3.26,3.64,0,.05.17.2-.19.19ZM20,22.07l3.66,4.09.66-.65-3.65-4.08,3.12-1.34L16.94,18l1.33,6.74Z"/></svg>