<svg id="Layer_1" data-name="Layer 1" xmlns="http://www.w3.org/2000/svg" viewBox="0 0 32 32"><defs><style>.cls-1{fill:#d8595a;}.cls-2{fill:#fff;}</style></defs><title>PDF Icon100</title><circle class="cls-1" cx="16" cy="16" r="15.5"/><path class="cls-2" d="M16,2.36A13.64,13.64,0,1,0,29.64,16,13.66,13.66,0,0,0,16,2.36Zm0,26.31A12.67,12.67,0,1,1,28.67,16,12.69,12.69,0,0,1,16,28.67Zm0,0"/><path class="cls-2" d="M16,29.94A13.94,13.94,0,1,1,29.94,16,14,14,0,0,1,16,29.94ZM16,2.65A13.35,13.35,0,1,0,29.35,16,13.37,13.37,0,0,0,16,2.65ZM16,29A13,13,0,1,1,29,16,13,13,0,0,1,16,29ZM16,3.63A12.37,12.37,0,1,0,28.37,16,12.39,12.39,0,0,0,16,3.63Z"/><path class="cls-2" d="M21.85,10.15H10.15a.49.49,0,0,0,0,1h11.7a.49.49,0,0,0,0-1Zm0,0"/><path class="cls-2" d="M21.85,11.42H10.15a.78.78,0,1,1,0-1.56h11.7a.78.78,0,0,1,0,1.56Zm-11.7-1a.19.19,0,0,0,0,.38h11.7a.19.19,0,0,0,0-.38Z"/><path class="cls-2" d="M21.85,15.51H10.15a.49.49,0,0,0,0,1h11.7a.49.49,0,1,0,0-1Zm0,0"/><path class="cls-2" d="M21.85,16.78H10.15a.78.78,0,0,1,0-1.56h11.7a.78.78,0,0,1,0,1.56Zm-11.7-1A.19.19,0,0,0,10,16a.2.2,0,0,0,.19.19h11.7A.2.2,0,0,0,22,16a.19.19,0,0,0-.19-.19Z"/><path class="cls-2" d="M21.85,20.69H10.15a.48.48,0,0,0-.49.48.49.49,0,0,0,.49.49h11.7a.49.49,0,0,0,.49-.49.48.48,0,0,0-.49-.48Zm0,0"/><path class="cls-2" d="M21.85,22H10.15a.79.79,0,0,1-.78-.79.78.78,0,0,1,.78-.78h11.7a.78.78,0,0,1,.78.78A.79.79,0,0,1,21.85,22Zm-11.7-1a.2.2,0,0,0-.19.19.2.2,0,0,0,.19.2h11.7a.2.2,0,0,0,.19-.2.2.2,0,0,0-.19-.19Z"/></svg>