<svg id="Layer_1" data-name="Layer 1" xmlns="http://www.w3.org/2000/svg" viewBox="0 0 16 16"><defs><style>.cls-88{fill:#009fff;}.cls-2{fill:#fcfcfc;}</style></defs><title>Web froms600</title><circle class="cls-88" cx="8" cy="8" r="7.79"/><path class="cls-2" d="M12.55,3a6.73,6.73,0,0,0-8.66-.36,4.54,4.54,0,0,0-.48.41,6.74,6.74,0,0,0,8.71,10.28c.17-.13.33-.27.49-.41A6.73,6.73,0,0,0,13,3.41a3.78,3.78,0,0,0-.4-.4Zm-.23,9.13a6.76,6.76,0,0,0-1.06-.71,11.13,11.13,0,0,0,.49-3.08l2.24,0a6,6,0,0,1-1.67,3.81Zm-.61.56a1.09,1.09,0,0,1-.17.13,2,2,0,0,1-.26.18,2,2,0,0,1-.19.12l-.27.16-.2.1-.28.12-.19.08A6.2,6.2,0,0,0,11,12.14a5.71,5.71,0,0,1,.77.51l-.06,0Zm-6.25.72-.2-.1L5,13.17l-.18-.12-.27-.18a1.09,1.09,0,0,1-.17-.13l-.06,0a6.48,6.48,0,0,1,.76-.53,5.7,5.7,0,0,0,.87,1.44l-.19-.07-.28-.12ZM3.69,3.84a6.41,6.41,0,0,0,1.07.71,10.79,10.79,0,0,0-.49,3.09H2A6,6,0,0,1,3.69,3.84Zm.61-.56.18-.13L4.74,3l.19-.12.26-.15.21-.1.28-.13.19-.08A6.12,6.12,0,0,0,5,3.85a6.61,6.61,0,0,1-.78-.52l.06-.05Zm6.26-.71.2.1.27.15.19.11.26.18.18.13.06,0a6.5,6.5,0,0,1-.77.52,6.17,6.17,0,0,0-.86-1.44l.19.07.28.13Zm-2.95,2A5.76,5.76,0,0,1,5.7,4.17,3.34,3.34,0,0,1,7.6,2.05Zm0,.75V7.62H5a10.31,10.31,0,0,1,.43-2.75,6.44,6.44,0,0,0,2.17.47Zm0,3,0,2.27a6.72,6.72,0,0,0-2.17.49A10.62,10.62,0,0,1,5,8.38Zm0,3,0,2.56a3.4,3.4,0,0,1-1.93-2.1,6,6,0,0,1,1.91-.46Zm.75,0a6,6,0,0,1,1.92.43,3.39,3.39,0,0,1-1.9,2.12Zm0-.75,0-2.26,2.62,0a10.66,10.66,0,0,1-.43,2.75,7.09,7.09,0,0,0-2.17-.47Zm0-3V5.35a6.73,6.73,0,0,0,2.16-.5A10.28,10.28,0,0,1,11,7.6Zm0-3V2.05a3.32,3.32,0,0,1,1.92,2.1,5.92,5.92,0,0,1-1.91.45ZM4.27,8.39a11.18,11.18,0,0,0,.53,3.08,6.38,6.38,0,0,0-1.06.72A6,6,0,0,1,2,8.4Zm7.47-.79a10.69,10.69,0,0,0-.52-3.08,6.89,6.89,0,0,0,1.06-.73A6,6,0,0,1,14,7.58Zm0,0"/></svg>