<svg id="Layer_1" data-name="Layer 1" xmlns="http://www.w3.org/2000/svg" viewBox="0 0 32 32"><defs><style>.cls-1{fill:#d8595a;}.cls-2{fill:none;stroke:#d8595a;stroke-miterlimit:10;stroke-width:0.3px;}</style></defs><title>PDF Icon 02100</title><rect class="cls-1" x="9.84" y="19.02" width="9.25" height="1.03"/><rect class="cls-1" x="9.84" y="16.74" width="9.25" height="1.03"/><rect class="cls-1" x="9.84" y="14.46" width="9.25" height="1.03"/><rect class="cls-1" x="9.84" y="21.43" width="9.25" height="1.03"/><path class="cls-1" d="M16,1.15A14.85,14.85,0,1,0,30.85,16,14.85,14.85,0,0,0,16,1.15Zm5.11,21v1.8a1.8,1.8,0,0,1-1.8,1.81H9.61A1.81,1.81,0,0,1,7.8,23.94V10.63A1.81,1.81,0,0,1,9.61,8.82h9.7a1.8,1.8,0,0,1,1.8,1.81V22.14Zm2.32-2.32v1.81a1.83,1.83,0,0,1-1.29,1.73V10.63A2.83,2.83,0,0,0,19.31,7.8H10.19a1.81,1.81,0,0,1,1.73-1.29h9.7a1.81,1.81,0,0,1,1.81,1.81Zm0,0"/><rect class="cls-1" x="9.84" y="12.18" width="9.25" height="1.03"/><circle class="cls-2" cx="16" cy="16" r="15.5"/></svg>