<svg id="Layer_1" data-name="Layer 1" xmlns="http://www.w3.org/2000/svg" viewBox="0 0 175.6 167.7"><title>workflow_icon</title><path d="M67,0H8.4A8.4,8.4,0,0,0,0,8.4V67.1a8.4,8.4,0,0,0,8.4,8.4H67.1a8.4,8.4,0,0,0,8.4-8.4V8.4A8.4,8.4,0,0,0,67.1,0ZM58.6,58.7H16.7V16.8H58.6Z" transform="translate(0 0)"/><path d="M159.3,92.2H100.6a8.4,8.4,0,0,0-8.4,8.4v58.7a8.4,8.4,0,0,0,8.4,8.4h58.7a8.4,8.4,0,0,0,8.4-8.4h0V100.6A8.4,8.4,0,0,0,159.3,92.2Z" transform="translate(0 0)"/><path d="M67,159.3H16.7a8.4,8.4,0,0,1-8.4-8.4V100.6a8.4,8.4,0,0,1,16.8,0v41.9H67a8.4,8.4,0,0,1,0,16.8Z" transform="translate(0 0)"/><path d="M159.3,51.9V16.8a8.4,8.4,0,0,0-8.4-8.4H100.6a8.4,8.4,0,0,0,0,16.8h41.9V51.9H127.7l24,31.9,23.9-31.9Z" transform="translate(0 0)"/></svg>