<svg id="Layer_1" data-name="Layer 1" xmlns="http://www.w3.org/2000/svg" viewBox="0 0 297.8 222.6"><defs><style>.cls-1{fill:#fbfbfb;}.cls-10,.cls-11,.cls-13,.cls-14,.cls-15,.cls-16,.cls-17,.cls-18,.cls-2,.cls-21,.cls-25,.cls-3,.cls-33,.cls-36,.cls-39,.cls-4,.cls-40,.cls-5,.cls-6,.cls-7,.cls-8{fill:none;}.cls-10,.cls-11,.cls-13,.cls-14,.cls-15,.cls-16,.cls-17,.cls-18,.cls-19,.cls-2,.cls-21,.cls-22,.cls-28,.cls-3,.cls-30,.cls-33,.cls-34,.cls-35,.cls-36,.cls-4,.cls-5,.cls-6,.cls-7,.cls-8{stroke:#999;}.cls-10,.cls-11,.cls-13,.cls-19,.cls-2,.cls-20,.cls-22,.cls-24,.cls-26,.cls-3,.cls-30,.cls-34,.cls-35,.cls-39,.cls-4,.cls-5,.cls-6,.cls-7,.cls-8{stroke-miterlimit:10;}.cls-10,.cls-11,.cls-13,.cls-14,.cls-15,.cls-16,.cls-17,.cls-18,.cls-2,.cls-3,.cls-33,.cls-4,.cls-5,.cls-6,.cls-7,.cls-8{stroke-width:2px;}.cls-3{stroke-dasharray:5.04 5.04;}.cls-4{stroke-dasharray:4.58 4.58;}.cls-5{stroke-dasharray:4.5 4.5;}.cls-6{stroke-dasharray:5.03 5.03;}.cls-16,.cls-7{stroke-dasharray:4.92 4.92;}.cls-15,.cls-8{stroke-dasharray:4.97 4.97;}.cls-30,.cls-9{fill:#e6e7e8;}.cls-10{stroke-dasharray:4.24 4.24;}.cls-11{stroke-dasharray:4.16 4.16;}.cls-12{fill:#3fa9f5;}.cls-13{stroke-dasharray:5.22 5.22;}.cls-14,.cls-15,.cls-16,.cls-17,.cls-18,.cls-21,.cls-25,.cls-27,.cls-28,.cls-33,.cls-36,.cls-40{stroke-linejoin:round;}.cls-17{stroke-dasharray:5.04 5.04;}.cls-18{stroke-dasharray:5.07 5.07;}.cls-19{fill:#ffd248;}.cls-20{fill:#5db295;stroke:#228964;}.cls-21,.cls-25,.cls-27{stroke-width:3.22px;}.cls-22{fill:#bfce6a;}.cls-23,.cls-24,.cls-26,.cls-27,.cls-32,.cls-35{fill:#fff;}.cls-23,.cls-24{opacity:0.2;}.cls-24,.cls-25{stroke:#f2f2f2;}.cls-26,.cls-27{stroke:#fff;}.cls-28{fill:#ea7373;}.cls-29{fill:#dddedf;}.cls-31{fill:#bcbec0;}.cls-33{stroke-dasharray:5.03 5.03;}.cls-34{fill:#f1f2f2;}.cls-36,.cls-40{stroke-width:2.47px;}.cls-37{fill:#31c0d8;}.cls-38{opacity:0.6;}.cls-39{stroke:#0ba3b2;}.cls-40{stroke:#00333f;}</style></defs><title>workflow_img</title><g id="_Group_" data-name="&lt;Group&gt;"><polygon class="cls-1" points="260 34.3 260 164.5 259.5 165 222.4 165 222.4 201.5 11.3 201.5 11.3 34.3 260 34.3"/><polyline class="cls-2" points="257.5 34.3 260 34.3 260 36.8"/><line class="cls-3" x1="260" y1="41.9" x2="260" y2="160.2"/><polyline class="cls-2" points="260 162.8 260 164.5 259.5 165 257 165"/><line class="cls-4" x1="252.4" y1="165" x2="227.2" y2="165"/><polyline class="cls-2" points="224.9 165 222.4 165 222.4 167.5"/><line class="cls-5" x1="222.4" y1="172" x2="222.4" y2="196.8"/><polyline class="cls-2" points="222.4 199 222.4 201.5 219.9 201.5"/><line class="cls-6" x1="214.9" y1="201.5" x2="16.3" y2="201.5"/><polyline class="cls-2" points="13.8 201.5 11.3 201.5 11.3 199"/><line class="cls-7" x1="11.3" y1="194.1" x2="11.3" y2="39.3"/><polyline class="cls-2" points="11.3 36.8 11.3 34.3 13.8 34.3"/><line class="cls-8" x1="18.8" y1="34.3" x2="255" y2="34.3"/><polygon class="cls-9" points="260 165 241.2 183.3 259.5 165 260 165"/><polyline class="cls-2" points="257.7 166.8 259.5 165 260 165 258.2 166.8"/><line class="cls-10" x1="255.2" y1="169.7" x2="244.5" y2="180.1"/><polyline class="cls-2" points="243 181.5 241.2 183.3 243 181.5"/><line class="cls-11" x1="245.9" y1="178.6" x2="256.2" y2="168.3"/><polygon class="cls-12" points="259.5 165 241.2 183.3 222.4 201.5 222.4 165 259.5 165"/><polyline class="cls-2" points="257 165 259.5 165 257.7 166.8"/><polyline class="cls-13" points="254 170.5 241.2 183.3 226.1 198"/><polyline class="cls-2" points="224.2 199.8 222.4 201.5 222.4 199"/><line class="cls-5" x1="222.4" y1="194.5" x2="222.4" y2="169.8"/><polyline class="cls-2" points="222.4 167.5 222.4 165 224.9 165"/><line class="cls-4" x1="229.5" y1="165" x2="254.7" y2="165"/><polyline class="cls-14" points="260 36.8 260 34.3 257.5 34.3"/><line class="cls-15" x1="252.5" y1="34.3" x2="16.3" y2="34.3"/><polyline class="cls-14" points="13.8 34.3 11.3 34.3 11.3 36.8"/><line class="cls-16" x1="11.3" y1="41.8" x2="11.3" y2="196.6"/><polyline class="cls-14" points="11.3 199 11.3 201.5 13.8 201.5"/><line class="cls-17" x1="18.9" y1="201.5" x2="218" y2="201.5"/><polyline class="cls-14" points="220.5 201.5 222.4 201.5 223 201.5 224.7 199.8"/><polyline class="cls-18" points="228.3 196.2 241.2 183.3 259.5 165 260 164.5 260 39.4"/></g><rect class="cls-19" x="57.8" y="0.5" width="45.7" height="23.17"/><rect class="cls-20" x="57.8" y="50.1" width="45.7" height="23.17"/><line class="cls-21" x1="79.3" y1="23.7" x2="79.3" y2="50.1"/><rect class="cls-22" x="57.8" y="100.3" width="45.7" height="23.17"/><line class="cls-21" x1="79.3" y1="73.2" x2="79.3" y2="100.3"/><rect class="cls-23" x="74.5" y="16.6" width="25.7" height="3.22"/><rect class="cls-23" x="90.6" y="10.8" width="9.7" height="3.22"/><line class="cls-21" x1="62.3" y1="10.5" x2="65.5" y2="10.5"/><line class="cls-21" x1="67.4" y1="10.5" x2="73.9" y2="10.5"/><line class="cls-21" x1="62.3" y1="5.3" x2="69.4" y2="5.3"/><rect class="cls-24" x="74.5" y="66.2" width="25.7" height="3.22"/><rect class="cls-24" x="90.6" y="61" width="9.7" height="3.22"/><line class="cls-25" x1="62.3" y1="60" x2="65.5" y2="60"/><line class="cls-25" x1="67.4" y1="60" x2="73.9" y2="60"/><line class="cls-25" x1="62.3" y1="54.9" x2="69.4" y2="54.9"/><rect class="cls-26" x="73.9" y="115.7" width="25.1" height="3.22"/><rect class="cls-26" x="89.3" y="110.6" width="9.7" height="3.22"/><line class="cls-27" x1="61" y1="110.2" x2="64.2" y2="110.2"/><line class="cls-27" x1="66.2" y1="110.2" x2="72.6" y2="110.2"/><line class="cls-27" x1="61" y1="104.5" x2="68.7" y2="104.5"/><line class="cls-21" x1="78.7" y1="123.4" x2="78.7" y2="144.7"/><rect class="cls-28" x="58.5" y="145" width="45.1" height="23.17"/><rect class="cls-29" x="51.3" y="181.4" width="16.1" height="3.22"/><rect class="cls-29" x="51.3" y="186.5" width="32.2" height="3.22"/><rect class="cls-29" x="93.8" y="181.4" width="16.1" height="3.22"/><rect class="cls-29" x="93.8" y="186.5" width="31.5" height="3.22"/><rect class="cls-29" x="137" y="181.4" width="16.1" height="3.22"/><rect class="cls-29" x="137" y="186.5" width="32.2" height="3.22"/><rect class="cls-29" x="180.7" y="181.4" width="16.1" height="3.22"/><rect class="cls-29" x="180.7" y="186.5" width="31.5" height="3.22"/><rect class="cls-30" x="115.1" y="1.8" width="45.7" height="23.17"/><line class="cls-21" x1="103.5" y1="13.7" x2="115.1" y2="13.7"/><rect class="cls-31" x="131.8" y="17.2" width="25.7" height="3.22"/><rect class="cls-31" x="147.9" y="12.1" width="9.7" height="3.22"/><line class="cls-21" x1="119.6" y1="11.8" x2="122.2" y2="11.8"/><line class="cls-21" x1="124.7" y1="11.8" x2="131.2" y2="11.8"/><line class="cls-21" x1="119.6" y1="6" x2="126.7" y2="6"/><rect class="cls-30" x="0.5" y="0.5" width="45.7" height="23.17"/><line class="cls-21" x1="46.2" y1="12.4" x2="57.8" y2="12.4"/><rect class="cls-31" x="17.9" y="16.6" width="25.1" height="3.22"/><rect class="cls-31" x="33.3" y="10.8" width="9.7" height="3.22"/><line class="cls-21" x1="5" y1="10.5" x2="8.2" y2="10.5"/><line class="cls-21" x1="10.2" y1="10.5" x2="16.6" y2="10.5"/><line class="cls-21" x1="5" y1="5.3" x2="12.1" y2="5.3"/><line class="cls-21" x1="177.5" y1="15.6" x2="182" y2="15.6"/><line class="cls-21" x1="185.9" y1="15.6" x2="190.4" y2="15.6"/><line class="cls-21" x1="194.2" y1="15.6" x2="198.7" y2="15.6"/><line class="cls-21" x1="59.7" y1="217.1" x2="64.2" y2="217.1"/><line class="cls-21" x1="68.7" y1="217.1" x2="72.6" y2="217.1"/><line class="cls-21" x1="77.1" y1="217.1" x2="81" y2="217.1"/><line class="cls-21" x1="274.7" y1="107.7" x2="279.2" y2="107.7"/><line class="cls-21" x1="283.1" y1="107.7" x2="287.6" y2="107.7"/><line class="cls-21" x1="292.1" y1="107.7" x2="295.9" y2="107.7"/><line class="cls-21" x1="213.6" y1="11.8" x2="218.7" y2="11.8"/><line class="cls-21" x1="221.9" y1="11.8" x2="233.5" y2="11.8"/><line class="cls-21" x1="213.6" y1="18.8" x2="218.7" y2="18.8"/><line class="cls-21" x1="221.9" y1="18.8" x2="229.6" y2="18.8"/><line class="cls-21" x1="97" y1="213.9" x2="102.2" y2="213.9"/><line class="cls-21" x1="105.4" y1="213.9" x2="117" y2="213.9"/><line class="cls-21" x1="97" y1="221" x2="102.2" y2="221"/><line class="cls-21" x1="105.4" y1="221" x2="113.1" y2="221"/><line class="cls-21" x1="131.8" y1="213.9" x2="137" y2="213.9"/><line class="cls-21" x1="140.2" y1="213.9" x2="151.8" y2="213.9"/><line class="cls-21" x1="131.8" y1="221" x2="137" y2="221"/><line class="cls-21" x1="140.2" y1="221" x2="147.9" y2="221"/><circle class="cls-32" cx="202.6" cy="154.5" r="64"/><circle class="cls-33" cx="202.6" cy="154.5" r="64"/><g id="_Group_2" data-name="&lt;Group&gt;"><path class="cls-12" d="M395.5,452.6v21.3h-9.8c-.1,0-2.3,3.9-2.4,4.2l8.4,7.1-14.8,14.7-8.7-8.5c-.3.2-3.1,2.2-6.1,2.3v13.6H340.8V493.7c0-.1-4.6-2-4.9-2.2l-7.8,8.7-14.7-14.4,8.5-7.8c-.2-.3-2.2-4.2-2.3-4.2H305.8V452.6h13.7c.1-3,2.1-6.6,2.2-6.8l-8.6-9.7,14.5-14.7,8.1,8.5c.3-.2,4.9-2.2,4.9-2.3v-9.9h21.3v9.9c3,.1,5.9,2.3,6.1,2.5l9-8.3,14.7,15-8.5,9.1c.2.3,2.2,3.8,2.3,6.8Zm-33.7,9.2a11.4,11.4,0,1,0-11.4,11.4A11.4,11.4,0,0,0,361.8,461.8Z" transform="translate(-148.5 -309.5)"/><path class="cls-32" d="M350.4,450.4A11.4,11.4,0,1,1,339,461.8,11.4,11.4,0,0,1,350.4,450.4Z" transform="translate(-148.5 -309.5)"/></g><polygon class="cls-34" points="201.1 51.5 201.1 154.4 296.6 154.4 296.6 28.5 224.2 28.5 201.1 51.5"/><polygon class="cls-35" points="224.3 51.9 201.1 51.9 224.3 28.5 224.3 51.9"/><polygon class="cls-36" points="224.2 28.5 296.6 28.5 296.6 154.4 201.1 154.4 201.1 51.5 224.2 28.5"/><rect class="cls-29" x="274.9" y="138.5" width="12" height="2.5"/><rect class="cls-29" x="262.4" y="142.5" width="24.5" height="2.5"/><line class="cls-14" x1="212.5" y1="62.2" x2="285.5" y2="62.2"/><line class="cls-14" x1="212.5" y1="70.7" x2="285.5" y2="70.7"/><line class="cls-14" x1="212.5" y1="78.7" x2="285.5" y2="78.7"/><line class="cls-14" x1="212.5" y1="86.7" x2="285.5" y2="86.7"/><line class="cls-14" x1="210.4" y1="123.7" x2="244.9" y2="123.7"/><line class="cls-14" x1="210.4" y1="131.7" x2="244.9" y2="131.7"/><g id="_Group_3" data-name="&lt;Group&gt;"><circle class="cls-37" cx="271.6" cy="118.2" r="14.8"/><g class="cls-38"><circle class="cls-32" cx="271.6" cy="118.2" r="10.2"/></g><circle class="cls-39" cx="271.6" cy="118.2" r="14.8"/></g><polyline class="cls-40" points="265 119.7 268.4 123.1 279.4 112.1"/><line class="cls-14" x1="244.9" y1="141.2" x2="238.4" y2="141.2"/><line class="cls-14" x1="234.9" y1="141.2" x2="228.4" y2="141.2"/><line class="cls-14" x1="285.5" y1="96.2" x2="271.7" y2="96.2"/><line class="cls-14" x1="264.3" y1="96.2" x2="250.6" y2="96.2"/></svg>