<svg id="Layer_1" data-name="Layer 1" xmlns="http://www.w3.org/2000/svg" viewBox="0 0 398.6 397.7"><title>download_icon</title><path d="M598.7,341.1H551.8a11.6,11.6,0,0,0-11.6,11.6v81.7H281.8V352.8a11.6,11.6,0,0,0-11.6-11.6H223.3a11.6,11.6,0,0,0-11.6,11.6V469.7a35.2,35.2,0,0,0,35.2,35.2H575.4a35.2,35.2,0,0,0,34.9-35.2V352.8A11.6,11.6,0,0,0,598.7,341.1Z" transform="translate(-211.7 -107.1)"/><path d="M541.2,260.6A11.6,11.6,0,0,0,529.6,249H471.1V118.7a11.6,11.6,0,0,0-11.6-11.6h-95a11.6,11.6,0,0,0-11.6,11.6V249H294.1a11.6,11.6,0,0,0-8.9,19.1L402.1,408.3a14,14,0,0,0,19.5,0L538.5,268.1A11.6,11.6,0,0,0,541.2,260.6Z" transform="translate(-211.7 -107.1)"/></svg>