<svg id="Layer_1" data-name="Layer 1" xmlns="http://www.w3.org/2000/svg" viewBox="0 0 82.4 82.5"><title>edit_icon</title><path d="M440.9,363.7a1.9,1.9,0,0,0,2.8,0l41.6-41.6a1.9,1.9,0,0,0,0-2.8l-3.9-3.9a1.9,1.9,0,0,0-2.8,0L437,357a1.9,1.9,0,0,0,0,2.8Z" transform="translate(-420.8 -297.5)"/><path d="M469.3,354.8l24.4-24.4a1.9,1.9,0,0,0,0-2.8l-3.5-3.5a1.9,1.9,0,0,0-2.8,0l-42,42a2.1,2.1,0,0,0-.3,2.4l1.4,2.4a3,3,0,0,1-1.4.7l-9.6,1.6a13.9,13.9,0,0,0-8-8l1.6-9.6a2.6,2.6,0,0,1,.7-1.4l2.4,1.4a2,2,0,0,0,2.4-.3l42-42a1.9,1.9,0,0,0,0-2.8l-3.5-3.5a1.9,1.9,0,0,0-2.8,0l-43.7,43.7a7.4,7.4,0,0,0-2.1,4.1l-3.7,22.2a2.4,2.4,0,0,0,.6,2.2h.1a2.4,2.4,0,0,0,1.6.7h.4l22.2-3.7a7.4,7.4,0,0,0,4.1-2.1l19.4-19.3Z" transform="translate(-420.8 -297.5)"/><path d="M503,318.2a37.3,37.3,0,0,0-20.5-20.5,3.4,3.4,0,0,0-3.6.7l-3.7,3.7a1.9,1.9,0,0,0,0,2.8l20.6,20.6a1.9,1.9,0,0,0,2.8,0l3.7-3.7A3.4,3.4,0,0,0,503,318.2Z" transform="translate(-420.8 -297.5)"/></svg>