<svg id="Layer_1" data-name="Layer 1" xmlns="http://www.w3.org/2000/svg" viewBox="0 0 188.2 147.6"><title>folder_icon</title><path d="M485.1,273.3v-.9a22.9,22.9,0,0,0-22.9-22.9H405l-32.4-16.5a6.2,6.2,0,0,0-2.8-.7H340.8A22.9,22.9,0,0,0,318,255.3V357.1A22.9,22.9,0,0,0,340.8,380H469.9a23,23,0,0,0,22.3-17.9L505.7,301a22.9,22.9,0,0,0-17.5-27.2l-3.2-.5Zm-12.5,0H373.8a23,23,0,0,0-22.3,17.9L335,365.8a10.4,10.4,0,0,1-4.6-8.6V255.3a10.4,10.4,0,0,1,10.4-10.4h27.4l32.5,16.5a6.2,6.2,0,0,0,2.8.7h58.7a10.4,10.4,0,0,1,10.4,10.4Z" transform="translate(-318 -232.4)"/></svg>