<svg id="Layer_3" data-name="Layer 3" xmlns="http://www.w3.org/2000/svg" viewBox="0 0 223.7 167.8"><title>mapping_icon</title><path d="M313.4,273.4H485.1v24a4.1,4.1,0,0,0,6.9,2.9L532,260.3a4.2,4.2,0,0,0,0-5.7l-39.8-39.8a4.7,4.7,0,0,0-3-1.2,3.8,3.8,0,0,0-4,4v24H313.4a4,4,0,0,0-4,4v24a4.1,4.1,0,0,0,4,4Z" transform="translate(-309.4 -213.5)"/><path d="M529.1,321.3H357.3v-24a4,4,0,0,0-4-4,3.9,3.9,0,0,0-2.9,1.1l-39.9,39.9a3.9,3.9,0,0,0-1.1,2.9,3.7,3.7,0,0,0,1.1,2.7L350.3,380a4.7,4.7,0,0,0,3,1.2,4,4,0,0,0,4-4v-24H529.1a4,4,0,0,0,4-4v-24a4,4,0,0,0-4-4Z" transform="translate(-309.4 -213.5)"/></svg>