<svg xmlns="http://www.w3.org/2000/svg" viewBox="0 0 22.07 20.33"><title>Asset 4</title><g id="Layer_2" data-name="Layer 2"><g id="Layer_1-2" data-name="Layer 1"><path d="M21.29,19.14H.77a.71.71,0,0,0-.77.6c0,.31.36.59.77.59H21.31a.7.7,0,0,0,.76-.59.72.72,0,0,0-.78-.6Z"/><path d="M4.35,13.33l0,3.66a.79.79,0,0,0,.23.56.74.74,0,0,0,.54.23l3.64,0a.73.73,0,0,0,.54-.22L21.85,5a.8.8,0,0,0,0-1.11L18.25.23a.78.78,0,0,0-1.11,0L14.63,2.76l-10,10a.85.85,0,0,0-.23.54ZM17.7,1.88l2.54,2.53L18.81,5.83,16.28,3.3ZM5.91,13.67l9.26-9.26L17.7,6.94,8.44,16.19H5.89Z"/></g></g></svg>