<svg id="Capa_1" data-name="Capa 1" xmlns="http://www.w3.org/2000/svg" viewBox="0 0 485.2 426"><defs><style>.cls-1{fill:#82612b;}</style></defs><title>warning_icon</title><path class="cls-1" d="M481.2,420.6l-219-380a21.9,21.9,0,0,0-38,0l-221,382c-10,17,5,33,19,33h442c12,0,21-10,21-22C485.2,428.6,484.2,424.6,481.2,420.6Zm-421-9,183-317,183,317Z" transform="translate(0 -29.6)"/><path class="cls-1" d="M221.2,192.6v97a22,22,0,0,0,44,0v-97a22,22,0,0,0-44,0Z" transform="translate(0 -29.6)"/><path class="cls-1" d="M243.2,330.6a26.9,26.9,0,0,0-27,27c0,15,12,28,27,28s27-13,27-28A26.9,26.9,0,0,0,243.2,330.6Z" transform="translate(0 -29.6)"/></svg>